<svg xmlns="http://www.w3.org/2000/svg" xmlns:xlink="http://www.w3.org/1999/xlink" preserveAspectRatio="xMidYMid meet" viewBox="0 0 1500 1900">
  <defs>
    <animateMotion repeatCount="indefinite" dur="2.8s" begin="0s" xlink:href="#_R_G_L_1_G" fill="freeze" keyTimes="0;0.5714286;0.7857143;1" path="M0 1900 C0,1900 1500,1900 1500,1900 C1500,1900 1284.09,1776.85 750,1780 C215.91,1783.16 0,1900 0,1900 " keyPoints="0;0.5;0.75;1" keySplines="0.8 0 0.2 1;0.677 0 0.833 0.833;0.167 0.167 0.313 1" calcMode="spline" />
    <animateTransform repeatCount="indefinite" dur="2.8s" begin="0s" xlink:href="#_R_G_L_1_G" fill="freeze" attributeName="transform" from="0" to="0" type="rotate" additive="sum" keyTimes="0;0.5714286;1" values="0;-90;0" keySplines="0.8 0 0.2 1;0.677 0 0.313 1" calcMode="spline" />
    <animateTransform repeatCount="indefinite" dur="2.8s" begin="0s" xlink:href="#_R_G_L_1_G" fill="freeze" attributeName="transform" from="100 100" to="100 100" type="scale" additive="sum" keyTimes="0;1" values="100 100;100 100" keySplines="0 0 1 1" calcMode="spline" />
    <animateTransform repeatCount="indefinite" dur="2.8s" begin="0s" xlink:href="#_R_G_L_1_G" fill="freeze" attributeName="transform" from="6.75 -6.75" to="6.75 -6.75" type="translate" additive="sum" keyTimes="0;1" values="6.75 -6.75;6.75 -6.75" keySplines="0 0 1 1" calcMode="spline" />
    <animate repeatCount="indefinite" dur="2.8s" begin="0s" xlink:href="#_R_G_L_0_G_D_0_P_0" fill="freeze" attributeName="d" attributeType="XML" from="M-600.52 880.78 C-600.52,918.51 -631.1,949.1 -668.83,949.1 C-668.83,949.1 -671.19,948.47 -671.19,948.47 C-708.91,948.47 -739.5,917.88 -739.5,880.15 C-739.5,842.42 -708.91,811.84 -671.19,811.84 C-671.19,811.84 -668.83,812.47 -668.83,812.47 C-631.1,812.47 -600.52,843.05 -600.52,880.78z " to="M-600.52 880.78 C-600.52,918.51 -631.1,949.1 -668.83,949.1 C-668.83,949.1 -671.19,948.47 -671.19,948.47 C-708.91,948.47 -739.5,917.88 -739.5,880.15 C-739.5,842.42 -708.91,811.84 -671.19,811.84 C-671.19,811.84 -668.83,812.47 -668.83,812.47 C-631.1,812.47 -600.52,843.05 -600.52,880.78z " keyTimes="0;0.5714286;0.7571429;1" values="M-600.52 880.78 C-600.52,918.51 -631.1,949.1 -668.83,949.1 C-668.83,949.1 -671.19,948.47 -671.19,948.47 C-708.91,948.47 -739.5,917.88 -739.5,880.15 C-739.5,842.42 -708.91,811.84 -671.19,811.84 C-671.19,811.84 -668.83,812.47 -668.83,812.47 C-631.1,812.47 -600.52,843.05 -600.52,880.78z ;M733.02 880.21 C733.02,917.94 702.44,948.53 664.71,948.53 C664.71,948.53 -671.19,948.47 -671.19,948.47 C-708.91,948.47 -739.5,917.88 -739.5,880.15 C-739.5,842.42 -708.91,811.84 -671.19,811.84 C-671.19,811.84 664.71,811.9 664.71,811.9 C702.44,811.9 733.02,842.49 733.02,880.21z ;M-600.52 880.78 C-600.52,918.51 -631.1,949.1 -668.83,949.1 C-668.83,949.1 -671.19,948.47 -671.19,948.47 C-708.91,948.47 -739.5,917.88 -739.5,880.15 C-739.5,842.42 -708.91,811.84 -671.19,811.84 C-671.19,811.84 -668.83,812.47 -668.83,812.47 C-631.1,812.47 -600.52,843.05 -600.52,880.78z ;M-600.52 880.78 C-600.52,918.51 -631.1,949.1 -668.83,949.1 C-668.83,949.1 -671.19,948.47 -671.19,948.47 C-708.91,948.47 -739.5,917.88 -739.5,880.15 C-739.5,842.42 -708.91,811.84 -671.19,811.84 C-671.19,811.84 -668.83,812.47 -668.83,812.47 C-631.1,812.47 -600.52,843.05 -600.52,880.78z " keySplines="0.8 0 0.2 1;0.677 0 0.833 0.833;0 0 0 0" calcMode="spline" />
    <animate repeatCount="indefinite" dur="2.8s" begin="0s" xlink:href="#_R_G_L_0_G_M" fill="freeze" attributeName="opacity" from="1" to="0" keyTimes="0;0.7714286;0.7714286;1" values="1;1;0;0" keySplines="0 0 0 0;0 0 0 0;0 0 0 0" calcMode="spline" />
    <animate attributeType="XML" attributeName="opacity" dur="3s" from="0" to="1" xlink:href="#time_group" />
  </defs>
  <g id="_R_G">
    <g id="_R_G_L_1_G">
      <path id="_R_G_L_1_G_D_0_P_0" fill-opacity="1" fill-rule="nonzero" d=" M2.08 -3.15 C2.08,-3.15 2.61,-2.61 2.61,-2.61 C2.61,-2.61 3.15,-2.08 3.15,-2.08 C3.15,-2.08 2.08,-3.15 2.08,-3.15z  M-6.75 3.56 C-6.75,3.56 -6.75,6.75 -6.75,6.75 C-6.75,6.75 -3.56,6.75 -3.56,6.75 C-3.56,6.75 6.32,-3.13 6.32,-3.13 C6.47,-3.28 6.58,-3.45 6.65,-3.63 C6.72,-3.81 6.75,-4 6.75,-4.2 C6.75,-4.39 6.72,-4.57 6.65,-4.76 C6.58,-4.95 6.47,-5.11 6.32,-5.25 C6.32,-5.25 5.29,-6.3 5.29,-6.3 C5.15,-6.45 4.99,-6.56 4.8,-6.64 C4.61,-6.71 4.42,-6.75 4.22,-6.75 C4.02,-6.75 3.83,-6.71 3.65,-6.64 C3.47,-6.56 3.3,-6.46 3.15,-6.32 C3.15,-6.32 -6.75,3.56 -6.75,3.56z  M-4.18 5.25 C-4.18,5.25 -5.25,5.25 -5.25,5.25 C-5.25,5.25 -5.25,4.18 -5.25,4.18 C-5.25,4.18 2.08,-3.15 2.08,-3.15 C2.08,-3.15 3.15,-2.08 3.15,-2.08 C3.15,-2.08 -4.18,5.25 -4.18,5.25z " />
    </g>
    <g id="_R_G_L_0_G_M">
      <g id="_R_G_L_0_G" transform=" translate(689.412, 1830.245) translate(60.588, -880.245)">
        <path id="_R_G_L_0_G_D_0_P_0" fill-opacity="1" fill-rule="nonzero" d=" M-600.52 880.78 C-600.52,918.51 -631.1,949.1 -668.83,949.1 C-668.83,949.1 -671.19,948.47 -671.19,948.47 C-708.91,948.47 -739.5,917.88 -739.5,880.15 C-739.5,842.42 -708.91,811.84 -671.19,811.84 C-671.19,811.84 -668.83,812.47 -668.83,812.47 C-631.1,812.47 -600.52,843.05 -600.52,880.78z " />
      </g>
    </g>
  </g>
  <g id="time_group" />
</svg>